<svg width="160" height="50" xmlns="http://www.w3.org/2000/svg">
 <g id="Layer_1">
  <title>Layer 1</title>
  <path fill="#aa56ff" stroke="#000" d="m30.9864,32.41455l-1.55032,-4.86576c0.45433,-0.35738 0.88077,-0.73978 1.2833,-1.14898l5.42212,1.39022c0.5719,-0.74693 1.0641,-1.54032 1.50448,-2.36408l-4.03521,-3.50234c0.19329,-0.51463 0.36068,-1.0382 0.48024,-1.57784l5.43806,-1.22225c0.03985,-0.4503 0.07772,-0.90239 0.07772,-1.36341s-0.03985,-0.91132 -0.07772,-1.36163l-5.43806,-1.22225c-0.12155,-0.53965 -0.28894,-1.06321 -0.48024,-1.57784l4.0372,-3.50234c-0.44238,-0.82198 -0.93457,-1.61715 -1.50648,-2.36408l-5.42212,1.38843c-0.40053,-0.40742 -0.82896,-0.78981 -1.2833,-1.14898l1.55032,-4.86397c-0.83295,-0.51106 -1.7197,-0.95421 -2.63833,-1.34912l-3.90568,3.62028c-0.5719,-0.17333 -1.15776,-0.32164 -1.75955,-0.43065l-1.36101,-4.87827c-0.50415,-0.03395 -1.00631,-0.06969 -1.52043,-0.06969s-1.01627,0.03574 -1.51843,0.06969l-1.363,4.87827c-0.60179,0.109 -1.18565,0.25732 -1.75955,0.43065l-3.90568,-3.62028c-0.91664,0.40027 -1.8014,0.84163 -2.63434,1.35448l1.55032,4.86397c-0.45433,0.35738 -0.88276,0.74157 -1.2813,1.1472l-5.42411,-1.39022c-0.5719,0.74693 -1.0641,1.5421 -1.50448,2.36587l4.0372,3.50234c-0.1913,0.51463 -0.35868,1.0382 -0.48024,1.57784l-5.44006,1.22225c-0.03786,0.4503 -0.07772,0.90239 -0.07772,1.36163s0.03985,0.91132 0.07772,1.36341l5.44006,1.22225c0.12155,0.53965 0.28894,1.06321 0.48024,1.57784l-4.0372,3.50234c0.44039,0.82198 0.93258,1.61715 1.50448,2.36408l5.42411,-1.39022c0.39854,0.4092 0.82697,0.78981 1.2813,1.14898l-1.55032,4.86576c0.83295,0.51106 1.7197,0.95242 2.63633,1.34912l3.90568,-3.62028c0.5739,0.17333 1.15776,0.32343 1.75955,0.43065l1.363,4.87648c0.50216,0.03574 1.00631,0.06969 1.52043,0.06969s1.01627,-0.03574 1.52043,-0.06969l1.36101,-4.87648c0.60179,-0.109 1.18765,-0.2591 1.75955,-0.43065l3.90568,3.62028c0.91465,-0.40027 1.8014,-0.84163 2.63434,-1.35269l0.00001,-0.00001zm-11.183,-8.57896c-3.74029,0 -6.77317,-2.71968 -6.77317,-6.07371s3.03288,-6.07192 6.77317,-6.07192s6.77117,2.71789 6.77117,6.07192s-3.03089,6.07371 -6.77117,6.07371zm30.87082,12.696c0.03786,-0.97744 -0.11956,-1.97275 -0.45832,-2.95555l2.47891,-3.16819c-0.37463,-0.62542 -0.79708,-1.21867 -1.27732,-1.75832l-4.2285,0.79518c-0.85287,-0.65044 -1.82332,-1.15792 -2.86151,-1.52066l-1.21754,-3.71499c-0.76918,-0.12151 -1.54832,-0.18763 -2.33743,-0.18941l-1.94088,3.45946c-0.55596,0.09649 -1.11192,0.22872 -1.65792,0.41635c-0.51212,0.17512 -0.99037,0.39312 -1.44869,0.63078l-3.99734,-1.46348c-0.59183,0.46817 -1.13185,0.97387 -1.62006,1.52245l1.80737,3.51664c-0.51611,0.88452 -0.87081,1.83694 -1.03421,2.83225l-3.76818,1.89413c0.03786,0.69332 0.15144,1.38664 0.3268,2.08175l4.19263,0.92741c0.46031,0.93634 1.07805,1.7744 1.82531,2.48917l-0.70143,3.82041c0.63766,0.41099 1.31518,0.7648 2.0186,1.07215l3.41747,-2.35872c1.06808,0.25195 2.18599,0.34845 3.31186,0.26804l2.89339,2.87157c0.39854,-0.10185 0.79508,-0.21086 1.18765,-0.34487c0.34872,-0.11794 0.67752,-0.25732 1.00631,-0.39848l0.07373,-3.86866c0.90668,-0.60576 1.67984,-1.33482 2.29558,-2.15501l4.30621,-0.23945c0.30289,-0.6415 0.55596,-1.30802 0.73331,-1.99241l-3.32581,-2.46951l0.00001,-0.00003zm-8.29559,3.58633c-2.39323,0.81841 -5.07141,-0.25732 -5.98605,-2.40339s0.28496,-4.54947 2.67818,-5.36967c2.39323,-0.81841 5.07539,0.25732 5.99004,2.40339c0.91265,2.14608 -0.28894,4.54947 -2.68217,5.36967z" id="svg_1" opacity="0.8"/>
  <text fill="#005fbf" stroke="#000" x="119.10281" y="62.70935" id="svg_4" font-size="26" font-family="'Exo'" text-anchor="start" xml:space="preserve" transform="matrix(1.47704, 0, 0, 1.22143, -128.325, -50.4238)" font-weight="bold" font-style="normal" stroke-width="0">TE</text>
  <text style="cursor: move;" fill="#7f00ff" stroke="#000" x="57.59581" y="42.24117" id="svg_7" font-size="24" font-family="'Exo'" text-anchor="start" xml:space="preserve" opacity="0.8" font-weight="normal" stroke-width="0">DESIGNS</text>
 </g>

</svg>